<?xml version="1.0" encoding="UTF-8" standalone="no"?>
<!DOCTYPE svg PUBLIC "-//W3C//DTD SVG 1.1//EN"
 "http://www.w3.org/Graphics/SVG/1.1/DTD/svg11.dtd">
<!-- Generated by graphviz version 14.1.2 (0)
 -->
<!-- Title: src/game/block_registry.h Pages: 1 -->
<svg width="229pt" height="86pt"
 viewBox="0.00 0.00 229.00 86.00" xmlns="http://www.w3.org/2000/svg" xmlns:xlink="http://www.w3.org/1999/xlink">
<g id="graph0" class="graph" transform="scale(1 1) rotate(0) translate(4 81.5)">
<title>src/game/block_registry.h</title>
<!-- Node1 -->
<g id="Node000001" class="node">
<title>Node1</title>
<g id="a_Node000001"><a xlink:title=" ">
<polygon fill="#999999" stroke="#666666" points="202.5,-77.5 62,-77.5 62,-56.75 202.5,-56.75 202.5,-77.5"/>
<text xml:space="preserve" text-anchor="middle" x="132.25" y="-64" font-family="Helvetica,sans-Serif" font-size="10.00">src/game/block_registry.h</text>
</a>
</g>
</g>
<!-- Node2 -->
<g id="Node000002" class="node">
<title>Node2</title>
<g id="a_Node000002"><a xlink:title=" ">
<polygon fill="#e0e0e0" stroke="#999999" points="92.5,-20.75 0,-20.75 0,0 92.5,0 92.5,-20.75"/>
<text xml:space="preserve" text-anchor="middle" x="46.25" y="-7.25" font-family="Helvetica,sans-Serif" font-size="10.00">unordered_map</text>
</a>
</g>
</g>
<!-- Node1&#45;&gt;Node2 -->
<g id="edge1_Node000001_Node000002" class="edge">
<title>Node1&#45;&gt;Node2</title>
<g id="a_edge1_Node000001_Node000002"><a xlink:title=" ">
<path fill="none" stroke="#63b8ff" d="M116.87,-56.34C104.16,-48.24 85.85,-36.58 71.06,-27.17"/>
<polygon fill="#63b8ff" stroke="#63b8ff" points="73.08,-24.31 62.77,-21.89 69.32,-30.21 73.08,-24.31"/>
</a>
</g>
</g>
<!-- Node3 -->
<g id="Node000003" class="node">
<title>Node3</title>
<g id="a_Node000003"><a xlink:title=" ">
<polygon fill="#e0e0e0" stroke="#999999" points="154.12,-20.75 110.38,-20.75 110.38,0 154.12,0 154.12,-20.75"/>
<text xml:space="preserve" text-anchor="middle" x="132.25" y="-7.25" font-family="Helvetica,sans-Serif" font-size="10.00">string</text>
</a>
</g>
</g>
<!-- Node1&#45;&gt;Node3 -->
<g id="edge2_Node000001_Node000003" class="edge">
<title>Node1&#45;&gt;Node3</title>
<g id="a_edge2_Node000001_Node000003"><a xlink:title=" ">
<path fill="none" stroke="#63b8ff" d="M132.25,-56.34C132.25,-49.72 132.25,-40.72 132.25,-32.52"/>
<polygon fill="#63b8ff" stroke="#63b8ff" points="135.75,-32.59 132.25,-22.59 128.75,-32.59 135.75,-32.59"/>
</a>
</g>
</g>
<!-- Node4 -->
<g id="Node000004" class="node">
<title>Node4</title>
<g id="a_Node000004"><a xlink:title=" ">
<polygon fill="#e0e0e0" stroke="#999999" points="220.75,-20.75 171.75,-20.75 171.75,0 220.75,0 220.75,-20.75"/>
<text xml:space="preserve" text-anchor="middle" x="196.25" y="-7.25" font-family="Helvetica,sans-Serif" font-size="10.00">cstdint</text>
</a>
</g>
</g>
<!-- Node1&#45;&gt;Node4 -->
<g id="edge3_Node000001_Node000004" class="edge">
<title>Node1&#45;&gt;Node4</title>
<g id="a_edge3_Node000001_Node000004"><a xlink:title=" ">
<path fill="none" stroke="#63b8ff" d="M143.69,-56.34C152.7,-48.63 165.48,-37.7 176.18,-28.54"/>
<polygon fill="#63b8ff" stroke="#63b8ff" points="178.43,-31.22 183.76,-22.06 173.88,-25.9 178.43,-31.22"/>
</a>
</g>
</g>
</g>
</svg>
