<?xml version="1.0" encoding="UTF-8" standalone="no"?>
<!DOCTYPE svg PUBLIC "-//W3C//DTD SVG 1.1//EN"
 "http://www.w3.org/Graphics/SVG/1.1/DTD/svg11.dtd">
<!-- Generated by graphviz version 15.1.1 (20260805.0921)
 -->
<!-- Title: src/graphics/camera.cpp Pages: 1 -->
<svg width="306pt" height="138pt"
 viewBox="0.00 0.00 306.00 138.00" xmlns="http://www.w3.org/2000/svg" xmlns:xlink="http://www.w3.org/1999/xlink">
<g id="graph0" class="graph" transform="scale(1 1) rotate(0) translate(4 133.75)">
<title>src/graphics/camera.cpp</title>
<!-- Node1 -->
<g id="Node000001" class="node">
<title>Node1</title>
<g id="a_Node000001"><a xlink:title=" ">
<polygon fill="#999999" stroke="#666666" points="170.25,-129.75 47,-129.75 47,-110.5 170.25,-110.5 170.25,-129.75"/>
<text xml:space="preserve" text-anchor="middle" x="108.62" y="-116.25" font-family="Helvetica,sans-Serif" font-size="10.00">src/graphics/camera.cpp</text>
</a>
</g>
</g>
<!-- Node2 -->
<g id="Node000002" class="node">
<title>Node2</title>
<g id="a_Node000002"><a xlink:href="camera_8h.html" target="_top" xlink:title=" ">
<polygon fill="white" stroke="#666666" points="62.88,-74.5 6.38,-74.5 6.38,-55.25 62.88,-55.25 62.88,-74.5"/>
<text xml:space="preserve" text-anchor="middle" x="34.62" y="-61" font-family="Helvetica,sans-Serif" font-size="10.00">camera.h</text>
</a>
</g>
</g>
<!-- Node1&#45;&gt;Node2 -->
<g id="edge1_Node000001_Node000002" class="edge">
<title>Node1&#45;&gt;Node2</title>
<g id="a_edge1_Node000001_Node000002"><a xlink:title=" ">
<path fill="none" stroke="#63b8ff" d="M96.07,-110.09C85.16,-102.24 69.12,-90.7 56.16,-81.37"/>
<polygon fill="#63b8ff" stroke="#63b8ff" points="58.38,-78.66 48.22,-75.66 54.29,-84.34 58.38,-78.66"/>
</a>
</g>
</g>
<!-- Node4 -->
<g id="Node000004" class="node">
<title>Node4</title>
<g id="a_Node000004"><a xlink:title=" ">
<polygon fill="#e0e0e0" stroke="#999999" points="136.5,-74.5 80.75,-74.5 80.75,-55.25 136.5,-55.25 136.5,-74.5"/>
<text xml:space="preserve" text-anchor="middle" x="108.62" y="-61" font-family="Helvetica,sans-Serif" font-size="10.00">algorithm</text>
</a>
</g>
</g>
<!-- Node1&#45;&gt;Node4 -->
<g id="edge3_Node000001_Node000004" class="edge">
<title>Node1&#45;&gt;Node4</title>
<g id="a_edge3_Node000001_Node000004"><a xlink:title=" ">
<path fill="none" stroke="#63b8ff" d="M108.62,-110.33C108.62,-103.82 108.62,-94.67 108.62,-86.37"/>
<polygon fill="#63b8ff" stroke="#63b8ff" points="112.13,-86.37 108.63,-76.37 105.13,-86.37 112.13,-86.37"/>
</a>
</g>
</g>
<!-- Node5 -->
<g id="Node000005" class="node">
<title>Node5</title>
<g id="a_Node000005"><a xlink:title=" ">
<polygon fill="#e0e0e0" stroke="#999999" points="298.38,-74.5 154.88,-74.5 154.88,-55.25 298.38,-55.25 298.38,-74.5"/>
<text xml:space="preserve" text-anchor="middle" x="226.62" y="-61" font-family="Helvetica,sans-Serif" font-size="10.00">glm/gtc/matrix_transform.hpp</text>
</a>
</g>
</g>
<!-- Node1&#45;&gt;Node5 -->
<g id="edge4_Node000001_Node000005" class="edge">
<title>Node1&#45;&gt;Node5</title>
<g id="a_edge4_Node000001_Node000005"><a xlink:title=" ">
<path fill="none" stroke="#63b8ff" d="M128.64,-110.09C147.12,-101.75 174.83,-89.25 196.07,-79.66"/>
<polygon fill="#63b8ff" stroke="#63b8ff" points="197.45,-82.88 205.13,-75.58 194.58,-76.5 197.45,-82.88"/>
</a>
</g>
</g>
<!-- Node3 -->
<g id="Node000003" class="node">
<title>Node3</title>
<g id="a_Node000003"><a xlink:title=" ">
<polygon fill="#e0e0e0" stroke="#999999" points="69.25,-19.25 0,-19.25 0,0 69.25,0 69.25,-19.25"/>
<text xml:space="preserve" text-anchor="middle" x="34.62" y="-5.75" font-family="Helvetica,sans-Serif" font-size="10.00">glm/glm.hpp</text>
</a>
</g>
</g>
<!-- Node2&#45;&gt;Node3 -->
<g id="edge2_Node000002_Node000003" class="edge">
<title>Node2&#45;&gt;Node3</title>
<g id="a_edge2_Node000002_Node000003"><a xlink:title=" ">
<path fill="none" stroke="#63b8ff" d="M34.62,-55.08C34.62,-48.57 34.62,-39.42 34.62,-31.12"/>
<polygon fill="#63b8ff" stroke="#63b8ff" points="38.13,-31.12 34.63,-21.12 31.13,-31.12 38.13,-31.12"/>
</a>
</g>
</g>
</g>
</svg>
