<?xml version="1.0" encoding="UTF-8" standalone="no"?>
<!DOCTYPE svg PUBLIC "-//W3C//DTD SVG 1.1//EN"
 "http://www.w3.org/Graphics/SVG/1.1/DTD/svg11.dtd">
<!-- Generated by graphviz version 14.1.2 (0)
 -->
<!-- Title: src/game/chunk.h Pages: 1 -->
<!--zoomable 168 -->

<svg id="main" version="1.1" xmlns="http://www.w3.org/2000/svg" xmlns:xlink="http://www.w3.org/1999/xlink" xml:space="preserve" onload="init(evt)">

<style type="text/css"><![CDATA[
.node, .edge {opacity: 0.7;}
.node.selected, .edge.selected {opacity: 1;}
.edge:hover path { stroke: red; }
.edge:hover polygon { stroke: red; fill: red; }
]]></style>

<defs>
  <circle id="rim" cx="0" cy="0" r="7"/>
  <circle id="rim2" cx="0" cy="0" r="3.5"/>
  <g id="zoomPlus">
    <use xlink:href="#rim" fill="#404040"><set attributeName="fill" to="#808080" begin="zoomplus.mouseover" end="zoomplus.mouseout"/></use>
    <path d="M-4,0h8M0,-4v8" fill="none" stroke="white" stroke-width="1.5" pointer-events="none"/>
  </g>
  <g id="zoomMin">
    <use xlink:href="#rim" fill="#404040"><set attributeName="fill" to="#808080" begin="zoomminus.mouseover" end="zoomminus.mouseout"/></use>
    <path d="M-4,0h8" fill="none" stroke="white" stroke-width="1.5" pointer-events="none"/>
  </g>
  <g id="arrowUp" transform="translate(30 24)">
    <use xlink:href="#rim"/>
    <path pointer-events="none" fill="none" stroke="white" stroke-width="1.5" d="M0,-3.0v7 M-2.5,-0.5L0,-3.0L2.5,-0.5"/>
  </g>
  <g id="arrowRight" transform="rotate(90) translate(36 -43)">
    <use xlink:href="#rim"/>
    <path pointer-events="none" fill="none" stroke="white" stroke-width="1.5" d="M0,-3.0v7 M-2.5,-0.5L0,-3.0L2.5,-0.5"/>
  </g>
  <g id="arrowDown" transform="rotate(180) translate(-30 -48)">
    <use xlink:href="#rim"/>
    <path pointer-events="none" fill="none" stroke="white" stroke-width="1.5" d="M0,-3.0v7 M-2.5,-0.5L0,-3.0L2.5,-0.5"/>
  </g>
  <g id="arrowLeft" transform="rotate(270) translate(-36 17)">
    <use xlink:href="#rim"/>
    <path pointer-events="none" fill="none" stroke="white" stroke-width="1.5" d="M0,-3.0v7 M-2.5,-0.5L0,-3.0L2.5,-0.5"/>
  </g>
  <g id="resetDef">
    <use xlink:href="#rim2" fill="#404040"><set attributeName="fill" to="#808080" begin="reset.mouseover" end="reset.mouseout"/></use>
  </g>
</defs>
<script type="application/ecmascript">
var viewWidth = 819;
var viewHeight = 168;
var sectionId = 'dynsection-1';
</script>
<script type="application/ecmascript" xlink:href="svg.min.js"/>
<svg id="graph" class="graph">
<g id="viewport">
<title>src/game/chunk.h</title>
<!-- Node1 -->
<g id="Node000001" class="node">
<title>Node1</title>
<g id="a_Node000001"><a xlink:title=" ">
<polygon fill="#999999" stroke="#666666" points="447.88,-159.75 345.62,-159.75 345.62,-139 447.88,-139 447.88,-159.75"/>
<text xml:space="preserve" text-anchor="middle" x="396.75" y="-146.25" font-family="Helvetica,sans-Serif" font-size="10.00">src/game/chunk.h</text>
</a>
</g>
</g>
<!-- Node2 -->
<g id="Node000002" class="node">
<title>Node2</title>
<g id="a_Node000002"><a xlink:href="chunk_8cpp.html" target="_top" xlink:title=" ">
<polygon fill="white" stroke="#666666" points="113.5,-96.62 0,-96.62 0,-75.88 113.5,-75.88 113.5,-96.62"/>
<text xml:space="preserve" text-anchor="middle" x="56.75" y="-83.12" font-family="Helvetica,sans-Serif" font-size="10.00">src/game/chunk.cpp</text>
</a>
</g>
</g>
<!-- Node1&#45;&gt;Node2 -->
<g id="edge1_Node000001_Node000002" class="edge">
<title>Node1&#45;&gt;Node2</title>
<g id="a_edge1_Node000001_Node000002"><a xlink:title=" ">
<path fill="none" stroke="#63b8ff" d="M334.2,-139.29C278.51,-130.91 194.94,-117.57 122.75,-103 114.09,-101.25 104.84,-99.18 96.09,-97.11"/>
<polygon fill="#63b8ff" stroke="#63b8ff" points="333.39,-142.71 343.8,-140.73 334.43,-135.79 333.39,-142.71"/>
</a>
</g>
</g>
<!-- Node3 -->
<g id="Node000003" class="node">
<title>Node3</title>
<g id="a_Node000003"><a xlink:href="chunk__data__texture_8cpp.html" target="_top" xlink:title=" ">
<polygon fill="white" stroke="#666666" points="251.88,-103 131.62,-103 131.62,-69.5 251.88,-69.5 251.88,-103"/>
<text xml:space="preserve" text-anchor="start" x="139.62" y="-89.5" font-family="Helvetica,sans-Serif" font-size="10.00">src/game/chunk_data</text>
<text xml:space="preserve" text-anchor="middle" x="191.75" y="-76.75" font-family="Helvetica,sans-Serif" font-size="10.00">_texture.cpp</text>
</a>
</g>
</g>
<!-- Node1&#45;&gt;Node3 -->
<g id="edge2_Node000001_Node000003" class="edge">
<title>Node1&#45;&gt;Node3</title>
<g id="a_edge2_Node000001_Node000003"><a xlink:title=" ">
<path fill="none" stroke="#63b8ff" d="M352.85,-135.28C321.65,-125.98 279.54,-113.43 246.2,-103.48"/>
<polygon fill="#63b8ff" stroke="#63b8ff" points="351.78,-138.62 362.36,-138.12 353.78,-131.91 351.78,-138.62"/>
</a>
</g>
</g>
<!-- Node4 -->
<g id="Node000004" class="node">
<title>Node4</title>
<g id="a_Node000004"><a xlink:href="game_8h.html" target="_top" xlink:title=" ">
<polygon fill="white" stroke="#666666" points="371.12,-96.62 270.38,-96.62 270.38,-75.88 371.12,-75.88 371.12,-96.62"/>
<text xml:space="preserve" text-anchor="middle" x="320.75" y="-83.12" font-family="Helvetica,sans-Serif" font-size="10.00">src/game/game.h</text>
</a>
</g>
</g>
<!-- Node1&#45;&gt;Node4 -->
<g id="edge3_Node000001_Node000004" class="edge">
<title>Node1&#45;&gt;Node4</title>
<g id="a_edge3_Node000001_Node000004"><a xlink:title=" ">
<path fill="none" stroke="#63b8ff" d="M375.67,-131.42C361.81,-120.27 344.17,-106.09 332.68,-96.84"/>
<polygon fill="#63b8ff" stroke="#63b8ff" points="373.37,-134.07 383.36,-137.61 377.76,-128.61 373.37,-134.07"/>
</a>
</g>
</g>
<!-- Node7 -->
<g id="Node000007" class="node">
<title>Node7</title>
<g id="a_Node000007"><a xlink:href="terrain__generator_8cpp.html" target="_top" xlink:title=" ">
<polygon fill="white" stroke="#666666" points="557.88,-96.62 389.62,-96.62 389.62,-75.88 557.88,-75.88 557.88,-96.62"/>
<text xml:space="preserve" text-anchor="middle" x="473.75" y="-83.12" font-family="Helvetica,sans-Serif" font-size="10.00">src/game/terrain_generator.cpp</text>
</a>
</g>
</g>
<!-- Node1&#45;&gt;Node7 -->
<g id="edge6_Node000001_Node000007" class="edge">
<title>Node1&#45;&gt;Node7</title>
<g id="a_edge6_Node000001_Node000007"><a xlink:title=" ">
<path fill="none" stroke="#63b8ff" d="M418.05,-131.46C432,-120.39 449.75,-106.31 461.41,-97.05"/>
<polygon fill="#63b8ff" stroke="#63b8ff" points="415.96,-128.65 410.31,-137.61 420.32,-134.14 415.96,-128.65"/>
</a>
</g>
</g>
<!-- Node8 -->
<g id="Node000008" class="node">
<title>Node8</title>
<g id="a_Node000008"><a xlink:href="chunk__mesher_8h.html" target="_top" xlink:title=" ">
<polygon fill="white" stroke="#666666" points="683.12,-103 576.38,-103 576.38,-69.5 683.12,-69.5 683.12,-103"/>
<text xml:space="preserve" text-anchor="start" x="584.38" y="-89.5" font-family="Helvetica,sans-Serif" font-size="10.00">src/graphics/chunk</text>
<text xml:space="preserve" text-anchor="middle" x="629.75" y="-76.75" font-family="Helvetica,sans-Serif" font-size="10.00">_mesher.h</text>
</a>
</g>
</g>
<!-- Node1&#45;&gt;Node8 -->
<g id="edge7_Node000001_Node000008" class="edge">
<title>Node1&#45;&gt;Node8</title>
<g id="a_edge7_Node000001_Node000008"><a xlink:title=" ">
<path fill="none" stroke="#63b8ff" d="M445.01,-135.71C483.16,-125.71 536.38,-111.74 575.91,-101.38"/>
<polygon fill="#63b8ff" stroke="#63b8ff" points="444.43,-132.25 435.65,-138.17 446.21,-139.02 444.43,-132.25"/>
</a>
</g>
</g>
<!-- Node11 -->
<g id="Node000011" class="node">
<title>Node11</title>
<g id="a_Node000011"><a xlink:href="renderer_8cpp.html" target="_top" xlink:title=" ">
<polygon fill="white" stroke="#666666" points="810.62,-103 700.88,-103 700.88,-69.5 810.62,-69.5 810.62,-103"/>
<text xml:space="preserve" text-anchor="start" x="708.88" y="-89.5" font-family="Helvetica,sans-Serif" font-size="10.00">src/graphics/vulkan</text>
<text xml:space="preserve" text-anchor="middle" x="755.75" y="-76.75" font-family="Helvetica,sans-Serif" font-size="10.00">/renderer.cpp</text>
</a>
</g>
</g>
<!-- Node1&#45;&gt;Node11 -->
<g id="edge10_Node000001_Node000011" class="edge">
<title>Node1&#45;&gt;Node11</title>
<g id="a_edge10_Node000001_Node000011"><a xlink:title=" ">
<path fill="none" stroke="#63b8ff" d="M459.31,-140.39C519.22,-132.36 612.03,-118.91 691.75,-103 694.67,-102.42 697.65,-101.79 700.66,-101.14"/>
<polygon fill="#63b8ff" stroke="#63b8ff" points="459.1,-136.89 449.65,-141.68 460.03,-143.83 459.1,-136.89"/>
</a>
</g>
</g>
<!-- Node5 -->
<g id="Node000005" class="node">
<title>Node5</title>
<g id="a_Node000005"><a xlink:href="game_8cpp.html" target="_top" xlink:title=" ">
<polygon fill="white" stroke="#666666" points="319.75,-27.12 207.75,-27.12 207.75,-6.38 319.75,-6.38 319.75,-27.12"/>
<text xml:space="preserve" text-anchor="middle" x="263.75" y="-13.62" font-family="Helvetica,sans-Serif" font-size="10.00">src/game/game.cpp</text>
</a>
</g>
</g>
<!-- Node4&#45;&gt;Node5 -->
<g id="edge4_Node000004_Node000005" class="edge">
<title>Node4&#45;&gt;Node5</title>
<g id="a_edge4_Node000004_Node000005"><a xlink:title=" ">
<path fill="none" stroke="#63b8ff" d="M305.42,-67.1C294.63,-54.32 280.61,-37.72 271.9,-27.4"/>
<polygon fill="#63b8ff" stroke="#63b8ff" points="302.48,-69.04 311.61,-74.42 307.83,-64.52 302.48,-69.04"/>
</a>
</g>
</g>
<!-- Node6 -->
<g id="Node000006" class="node">
<title>Node6</title>
<g id="a_Node000006"><a xlink:href="main_8cpp.html" target="_top" xlink:title=" ">
<polygon fill="white" stroke="#666666" points="415.88,-27.12 337.62,-27.12 337.62,-6.38 415.88,-6.38 415.88,-27.12"/>
<text xml:space="preserve" text-anchor="middle" x="376.75" y="-13.62" font-family="Helvetica,sans-Serif" font-size="10.00">src/main.cpp</text>
</a>
</g>
</g>
<!-- Node4&#45;&gt;Node6 -->
<g id="edge5_Node000004_Node000006" class="edge">
<title>Node4&#45;&gt;Node6</title>
<g id="a_edge5_Node000004_Node000006"><a xlink:title=" ">
<path fill="none" stroke="#63b8ff" d="M336.12,-66.72C346.68,-54 360.26,-37.62 368.74,-27.4"/>
<polygon fill="#63b8ff" stroke="#63b8ff" points="333.43,-64.48 329.74,-74.41 338.82,-68.95 333.43,-64.48"/>
</a>
</g>
</g>
<!-- Node9 -->
<g id="Node000009" class="node">
<title>Node9</title>
<g id="a_Node000009"><a xlink:href="world_8cpp.html" target="_top" xlink:title=" ">
<polygon fill="white" stroke="#666666" points="621.38,-27.12 510.12,-27.12 510.12,-6.38 621.38,-6.38 621.38,-27.12"/>
<text xml:space="preserve" text-anchor="middle" x="565.75" y="-13.62" font-family="Helvetica,sans-Serif" font-size="10.00">src/game/world.cpp</text>
</a>
</g>
</g>
<!-- Node8&#45;&gt;Node9 -->
<g id="edge8_Node000008_Node000009" class="edge">
<title>Node8&#45;&gt;Node9</title>
<g id="a_edge8_Node000008_Node000009"><a xlink:title=" ">
<path fill="none" stroke="#63b8ff" d="M606.95,-61.2C595.96,-49.61 583.4,-36.36 575.06,-27.57"/>
<polygon fill="#63b8ff" stroke="#63b8ff" points="604.12,-63.31 613.54,-68.16 609.2,-58.49 604.12,-63.31"/>
</a>
</g>
</g>
<!-- Node10 -->
<g id="Node000010" class="node">
<title>Node10</title>
<g id="a_Node000010"><a xlink:href="chunk__mesher_8cpp.html" target="_top" xlink:title=" ">
<polygon fill="white" stroke="#666666" points="746.12,-33.5 639.38,-33.5 639.38,0 746.12,0 746.12,-33.5"/>
<text xml:space="preserve" text-anchor="start" x="647.38" y="-20" font-family="Helvetica,sans-Serif" font-size="10.00">src/graphics/chunk</text>
<text xml:space="preserve" text-anchor="middle" x="692.75" y="-7.25" font-family="Helvetica,sans-Serif" font-size="10.00">_mesher.cpp</text>
</a>
</g>
</g>
<!-- Node8&#45;&gt;Node10 -->
<g id="edge9_Node000008_Node000010" class="edge">
<title>Node8&#45;&gt;Node10</title>
<g id="a_edge9_Node000008_Node000010"><a xlink:title=" ">
<path fill="none" stroke="#63b8ff" d="M652.44,-60.94C660.92,-51.85 670.33,-41.77 677.93,-33.63"/>
<polygon fill="#63b8ff" stroke="#63b8ff" points="649.98,-58.45 645.71,-68.15 655.09,-63.22 649.98,-58.45"/>
</a>
</g>
</g>
</g>
</svg>

<g id="navigator" transform="translate(0 0)" fill="#404254">
  <rect fill="#f2f5e9" fill-opacity="0.5" stroke="#606060" stroke-width=".5" x="0" y="0" width="60" height="60"/>
  <use id="zoomplus" xlink:href="#zoomPlus" x="17" y="9" onmousedown="handleZoom(evt,'in')"/>
  <use id="zoomminus" xlink:href="#zoomMin" x="42" y="9" onmousedown="handleZoom(evt,'out')"/>
  <use id="reset" xlink:href="#resetDef" x="30" y="36" onmousedown="handleReset()"/>
   <use id="arrowup" xlink:href="#arrowUp" x="0" y="0" onmousedown="handlePan(0,-1)"/>
  <use id="arrowright" xlink:href="#arrowRight" x="0" y="0" onmousedown="handlePan(1,0)"/>
  <use id="arrowdown" xlink:href="#arrowDown" x="0" y="0" onmousedown="handlePan(0,1)"/>
  <use id="arrowleft" xlink:href="#arrowLeft" x="0" y="0" onmousedown="handlePan(-1,0)"/>
</g>
<svg viewBox="0 0 15 15" width="100%" height="30px" preserveAspectRatio="xMaxYMin meet">
 <g id="arrow_out" transform="scale(0.3 0.3)">
  <a xlink:href="chunk_8h__dep__incl_org.svg" target="_base">
   <rect id="button" ry="5" rx="5" y="6" x="6" height="38" width="38"
        fill="#f2f5e9" fill-opacity="0.5" stroke="#606060" stroke-width="1.0"/>
   <path id="arrow"
     d="M 11.500037,31.436501 C 11.940474,20.09759 22.043105,11.32322 32.158766,21.979434 L 37.068811,17.246167 C 37.068811,17.246167 37.088388,32 37.088388,32 L 22.160133,31.978069 C 22.160133,31.978069 26.997745,27.140456 26.997745,27.140456 C 18.528582,18.264221 13.291696,25.230495 11.500037,31.436501 z"
     style="fill:#404040;"/>
  </a>
 </g>
</svg>

<style type='text/css'>
<![CDATA[
[data-mouse-over-selected='false'] { opacity: 0.7; }
[data-mouse-over-selected='true']  { opacity: 1.0; }
]]>
</style>
<script type="application/ecmascript"><![CDATA[
document.addEventListener('DOMContentLoaded', (event) => {
  highlightEdges();
  highlightAdjacentNodes();
});
]]></script>
</svg>
