<?xml version="1.0" encoding="UTF-8" standalone="no"?>
<!DOCTYPE svg PUBLIC "-//W3C//DTD SVG 1.1//EN"
 "http://www.w3.org/Graphics/SVG/1.1/DTD/svg11.dtd">
<!-- Generated by graphviz version 15.1.1 (20260805.0921)
 -->
<!-- Title: src/graphics/chunk_mesher.h Pages: 1 -->
<svg width="226pt" height="105pt"
 viewBox="0.00 0.00 226.00 105.00" xmlns="http://www.w3.org/2000/svg" xmlns:xlink="http://www.w3.org/1999/xlink">
<g id="graph0" class="graph" transform="scale(1 1) rotate(0) translate(4 101)">
<title>src/graphics/chunk_mesher.h</title>
<!-- Node1 -->
<g id="Node000001" class="node">
<title>Node1</title>
<g id="a_Node000001"><a xlink:title=" ">
<polygon fill="#999999" stroke="#666666" points="159.38,-97 60.87,-97 60.87,-66.5 159.38,-66.5 159.38,-97"/>
<text xml:space="preserve" text-anchor="start" x="68.88" y="-83.5" font-family="Helvetica,sans-Serif" font-size="10.00">src/graphics/chunk</text>
<text xml:space="preserve" text-anchor="middle" x="110.12" y="-72.25" font-family="Helvetica,sans-Serif" font-size="10.00">_mesher.h</text>
</a>
</g>
</g>
<!-- Node2 -->
<g id="Node000002" class="node">
<title>Node2</title>
<g id="a_Node000002"><a xlink:href="game_8cpp.html" target="_top" xlink:title=" ">
<polygon fill="white" stroke="#666666" points="102.25,-24.88 0,-24.88 0,-5.63 102.25,-5.63 102.25,-24.88"/>
<text xml:space="preserve" text-anchor="middle" x="51.12" y="-11.38" font-family="Helvetica,sans-Serif" font-size="10.00">src/game/game.cpp</text>
</a>
</g>
</g>
<!-- Node1&#45;&gt;Node2 -->
<g id="edge1_Node000001_Node000002" class="edge">
<title>Node1&#45;&gt;Node2</title>
<g id="a_edge1_Node000001_Node000002"><a xlink:title=" ">
<path fill="none" stroke="#63b8ff" d="M89.2,-57.87C78.82,-46.53 66.89,-33.49 59.2,-25.07"/>
<polygon fill="#63b8ff" stroke="#63b8ff" points="86.38,-59.98 95.72,-65 91.55,-55.26 86.38,-59.98"/>
</a>
</g>
</g>
<!-- Node3 -->
<g id="Node000003" class="node">
<title>Node3</title>
<g id="a_Node000003"><a xlink:href="chunk__mesher_8cpp.html" target="_top" xlink:title=" ">
<polygon fill="white" stroke="#666666" points="218.38,-30.5 119.88,-30.5 119.88,0 218.38,0 218.38,-30.5"/>
<text xml:space="preserve" text-anchor="start" x="127.88" y="-17" font-family="Helvetica,sans-Serif" font-size="10.00">src/graphics/chunk</text>
<text xml:space="preserve" text-anchor="middle" x="169.12" y="-5.75" font-family="Helvetica,sans-Serif" font-size="10.00">_mesher.cpp</text>
</a>
</g>
</g>
<!-- Node1&#45;&gt;Node3 -->
<g id="edge2_Node000001_Node000003" class="edge">
<title>Node1&#45;&gt;Node3</title>
<g id="a_edge2_Node000001_Node000003"><a xlink:title=" ">
<path fill="none" stroke="#63b8ff" d="M131.27,-57.63C139.45,-48.69 148.56,-38.74 155.79,-30.83"/>
<polygon fill="#63b8ff" stroke="#63b8ff" points="128.7,-55.26 124.53,-65 133.87,-59.98 128.7,-55.26"/>
</a>
</g>
</g>
</g>
</svg>
