<?xml version="1.0" encoding="UTF-8" standalone="no"?>
<!DOCTYPE svg PUBLIC "-//W3C//DTD SVG 1.1//EN"
 "http://www.w3.org/Graphics/SVG/1.1/DTD/svg11.dtd">
<!-- Generated by graphviz version 14.1.2 (0)
 -->
<!-- Title: BlockAtlas::BlockAtlas Pages: 1 -->
<svg width="430pt" height="68pt"
 viewBox="0.00 0.00 430.00 68.00" xmlns="http://www.w3.org/2000/svg" xmlns:xlink="http://www.w3.org/1999/xlink">
<g id="graph0" class="graph" transform="scale(1 1) rotate(0) translate(4 63.75)">
<title>BlockAtlas::BlockAtlas</title>
<!-- Node1 -->
<g id="Node000001" class="node">
<title>Node1</title>
<g id="a_Node000001"><a xlink:title=" ">
<polygon fill="#999999" stroke="#666666" points="125.5,-39.75 0,-39.75 0,-19 125.5,-19 125.5,-39.75"/>
<text xml:space="preserve" text-anchor="middle" x="62.75" y="-26.25" font-family="Helvetica,sans-Serif" font-size="10.00">BlockAtlas::BlockAtlas</text>
</a>
</g>
</g>
<!-- Node2 -->
<g id="Node000002" class="node">
<title>Node2</title>
<g id="a_Node000002"><a xlink:href="classBlockAtlas.html#a297117ab486ec280013b5298f4fa14ac" target="_top" xlink:title="Loads all the textures in the folder &quot;assets/textures/block&quot;, builds the mips and uploads the result ...">
<polygon fill="white" stroke="#666666" points="287,-39.75 161.5,-39.75 161.5,-19 287,-19 287,-39.75"/>
<text xml:space="preserve" text-anchor="middle" x="224.25" y="-26.25" font-family="Helvetica,sans-Serif" font-size="10.00">BlockAtlas::BlockAtlas</text>
</a>
</g>
</g>
<!-- Node1&#45;&gt;Node2 -->
<g id="edge1_Node000001_Node000002" class="edge">
<title>Node1&#45;&gt;Node2</title>
<g id="a_edge1_Node000001_Node000002"><a xlink:title=" ">
<path fill="none" stroke="#63b8ff" d="M125.87,-29.38C133.63,-29.38 141.62,-29.38 149.54,-29.38"/>
<polygon fill="#63b8ff" stroke="#63b8ff" points="149.52,-32.88 159.52,-29.38 149.52,-25.88 149.52,-32.88"/>
</a>
</g>
</g>
<!-- Node3 -->
<g id="Node000003" class="node">
<title>Node3</title>
<g id="a_Node000003"><a xlink:href="namespaceVoxisLog.html#a2e83c310dec6f4b5903ca0c238255ca1" target="_top" xlink:title=" ">
<polygon fill="white" stroke="#666666" points="421.5,-59.75 323,-59.75 323,-39 421.5,-39 421.5,-59.75"/>
<text xml:space="preserve" text-anchor="middle" x="372.25" y="-46.25" font-family="Helvetica,sans-Serif" font-size="10.00">VoxisLog::critical</text>
</a>
</g>
</g>
<!-- Node2&#45;&gt;Node3 -->
<g id="edge2_Node000002_Node000003" class="edge">
<title>Node2&#45;&gt;Node3</title>
<g id="a_edge2_Node000002_Node000003"><a xlink:title=" ">
<path fill="none" stroke="#63b8ff" d="M287.17,-37.86C295.1,-38.94 303.22,-40.06 311.13,-41.14"/>
<polygon fill="#63b8ff" stroke="#63b8ff" points="310.64,-44.6 321.02,-42.49 311.59,-37.67 310.64,-44.6"/>
</a>
</g>
</g>
<!-- Node4 -->
<g id="Node000004" class="node">
<title>Node4</title>
<g id="a_Node000004"><a xlink:href="namespaceVoxisLog.html#a89d44efd3d8aab54fedc94f68218a382" target="_top" xlink:title=" ">
<polygon fill="white" stroke="#666666" points="416.62,-20.75 327.88,-20.75 327.88,0 416.62,0 416.62,-20.75"/>
<text xml:space="preserve" text-anchor="middle" x="372.25" y="-7.25" font-family="Helvetica,sans-Serif" font-size="10.00">VoxisLog::error</text>
</a>
</g>
</g>
<!-- Node2&#45;&gt;Node4 -->
<g id="edge3_Node000002_Node000004" class="edge">
<title>Node2&#45;&gt;Node4</title>
<g id="a_edge3_Node000002_Node000004"><a xlink:title=" ">
<path fill="none" stroke="#63b8ff" d="M287.17,-21.32C296.78,-20.07 306.66,-18.78 316.11,-17.55"/>
<polygon fill="#63b8ff" stroke="#63b8ff" points="316.41,-21.04 325.88,-16.28 315.51,-14.1 316.41,-21.04"/>
</a>
</g>
</g>
</g>
</svg>
