<?xml version="1.0" encoding="UTF-8" standalone="no"?>
<!DOCTYPE svg PUBLIC "-//W3C//DTD SVG 1.1//EN"
 "http://www.w3.org/Graphics/SVG/1.1/DTD/svg11.dtd">
<!-- Generated by graphviz version 15.1.1 (20260805.0921)
 -->
<!-- Title: Renderer::createSyncResources Pages: 1 -->
<svg width="294pt" height="100pt"
 viewBox="0.00 0.00 294.00 100.00" xmlns="http://www.w3.org/2000/svg" xmlns:xlink="http://www.w3.org/1999/xlink">

<svg id="main" version="1.1" xmlns="http://www.w3.org/2000/svg" xmlns:xlink="http://www.w3.org/1999/xlink" xml:space="preserve">

<style type="text/css"><![CDATA[
.node, .edge {opacity: 0.7;}
.node.selected, .edge.selected {opacity: 1;}
.edge:hover path { stroke: red; }
.edge:hover polygon { stroke: red; fill: red; }
]]></style>
<script type="application/ecmascript" xlink:href="svg.min.js"/>
<svg id="graph" class="graph">
<g id="graph0" class="graph" transform="scale(1 1) rotate(0) translate(4 96.25)">
<title>Renderer::createSyncResources</title>
<!-- Node1 -->
<g id="Node000001" class="node">
<title>Node1</title>
<g id="a_Node000001"><a xlink:title=" ">
<polygon fill="#999999" stroke="#666666" points="158.5,-46.25 0,-46.25 0,-27 158.5,-27 158.5,-46.25"/>
<text xml:space="preserve" text-anchor="middle" x="79.25" y="-32.75" font-family="Helvetica,sans-Serif" font-size="10.00">Renderer::createSyncResources</text>
</a>
</g>
</g>
<!-- Node2 -->
<g id="Node000002" class="node">
<title>Node2</title>
<g id="a_Node000002"><a xlink:href="namespace_voxis_log.html#a2e83c310dec6f4b5903ca0c238255ca1" target="_top" xlink:title=" ">
<polygon fill="white" stroke="#666666" points="285.5,-74.25 194.5,-74.25 194.5,-55 285.5,-55 285.5,-74.25"/>
<text xml:space="preserve" text-anchor="middle" x="240" y="-60.75" font-family="Helvetica,sans-Serif" font-size="10.00">VoxisLog::critical</text>
</a>
</g>
</g>
<!-- Node1&#45;&gt;Node2 -->
<g id="edge1_Node000001_Node000002" class="edge">
<title>Node1&#45;&gt;Node2</title>
<g id="a_edge1_Node000001_Node000002"><a xlink:title=" ">
<path fill="none" stroke="#63b8ff" d="M137.56,-46.73C152.42,-49.36 168.41,-52.17 183.19,-54.78"/>
<polygon fill="#63b8ff" stroke="#63b8ff" points="182.28,-58.17 192.73,-56.46 183.49,-51.28 182.28,-58.17"/>
</a>
</g>
</g>
<!-- Node3 -->
<g id="Node000003" class="node">
<title>Node3</title>
<g id="a_Node000003"><a xlink:href="namespace_voxis_log.html#a526ecbcf25e08613a82d0cfae9ac048f" target="_top" xlink:title=" ">
<polygon fill="white" stroke="#666666" points="279.12,-19.25 200.88,-19.25 200.88,0 279.12,0 279.12,-19.25"/>
<text xml:space="preserve" text-anchor="middle" x="240" y="-5.75" font-family="Helvetica,sans-Serif" font-size="10.00">VoxisLog::info</text>
</a>
</g>
</g>
<!-- Node1&#45;&gt;Node3 -->
<g id="edge3_Node000001_Node000003" class="edge">
<title>Node1&#45;&gt;Node3</title>
<g id="a_edge3_Node000001_Node000003"><a xlink:title=" ">
<path fill="none" stroke="#63b8ff" d="M139.36,-26.57C155.82,-23.77 173.52,-20.76 189.37,-18.07"/>
<polygon fill="#63b8ff" stroke="#63b8ff" points="189.78,-21.55 199.05,-16.42 188.61,-14.65 189.78,-21.55"/>
</a>
</g>
</g>
<!-- Node2&#45;&gt;Node2 -->
<g id="edge2_Node000002_Node000002" class="edge">
<title>Node2&#45;&gt;Node2</title>
<g id="a_edge2_Node000002_Node000002"><a xlink:title=" ">
<path fill="none" stroke="#63b8ff" d="M214.83,-74.54C203.35,-83.15 211.74,-92.25 240,-92.25 255.89,-92.25 265.5,-89.37 268.82,-85.32"/>
<polygon fill="#63b8ff" stroke="#63b8ff" points="272.18,-84.32 265.65,-75.97 265.55,-86.57 272.18,-84.32"/>
</a>
</g>
</g>
<!-- Node3&#45;&gt;Node3 -->
<g id="edge4_Node000003_Node000003" class="edge">
<title>Node3&#45;&gt;Node3</title>
<g id="a_edge4_Node000003_Node000003"><a xlink:title=" ">
<path fill="none" stroke="#63b8ff" d="M214.83,-19.54C203.35,-28.15 211.74,-37.25 240,-37.25 255.89,-37.25 265.5,-34.37 268.82,-30.32"/>
<polygon fill="#63b8ff" stroke="#63b8ff" points="272.18,-29.32 265.65,-20.97 265.55,-31.57 272.18,-29.32"/>
</a>
</g>
</g>
</g>
</svg>
</svg>

<style type='text/css'>
<![CDATA[
[data-mouse-over-selected='false'] { opacity: 0.7; }
[data-mouse-over-selected='true']  { opacity: 1.0; }
]]>
</style>
</svg>
