<?xml version="1.0" encoding="UTF-8" standalone="no"?>
<!DOCTYPE svg PUBLIC "-//W3C//DTD SVG 1.1//EN"
 "http://www.w3.org/Graphics/SVG/1.1/DTD/svg11.dtd">
<!-- Generated by graphviz version 15.1.1 (20260805.0921)
 -->
<!-- Title: Window::height Pages: 1 -->
<svg width="581pt" height="162pt"
 viewBox="0.00 0.00 581.00 162.00" xmlns="http://www.w3.org/2000/svg" xmlns:xlink="http://www.w3.org/1999/xlink">
<g id="graph0" class="graph" transform="scale(1 1) rotate(0) translate(4 158.27)">
<title>Window::height</title>
<!-- Node1 -->
<g id="Node000001" class="node">
<title>Node1</title>
<g id="a_Node000001"><a xlink:title=" ">
<polygon fill="#999999" stroke="#666666" points="572.5,-94.25 489,-94.25 489,-75 572.5,-75 572.5,-94.25"/>
<text xml:space="preserve" text-anchor="middle" x="530.75" y="-80.75" font-family="Helvetica,sans-Serif" font-size="10.00">Window::height</text>
</a>
</g>
</g>
<!-- Node2 -->
<g id="Node000002" class="node">
<title>Node2</title>
<g id="a_Node000002"><a xlink:href="class_renderer.html#a56bc319fd0b183616fe4b7caec5a5356" target="_top" xlink:title=" ">
<polygon fill="white" stroke="#666666" points="272,-132.25 124.75,-132.25 124.75,-113 272,-113 272,-132.25"/>
<text xml:space="preserve" text-anchor="middle" x="198.38" y="-118.75" font-family="Helvetica,sans-Serif" font-size="10.00">Renderer::getNextImageIndex</text>
</a>
</g>
</g>
<!-- Node1&#45;&gt;Node2 -->
<g id="edge1_Node000001_Node000002" class="edge">
<title>Node1&#45;&gt;Node2</title>
<g id="a_edge1_Node000001_Node000002"><a xlink:title=" ">
<path fill="none" stroke="#63b8ff" d="M512.57,-102.55C498.15,-116.21 476.23,-133.94 453,-141.62 376.49,-166.93 280.17,-146.5 231.17,-132.68"/>
<polygon fill="#63b8ff" stroke="#63b8ff" points="514.8,-105.27 519.45,-95.76 509.88,-100.29 514.8,-105.27"/>
</a>
</g>
</g>
<!-- Node3 -->
<g id="Node000003" class="node">
<title>Node3</title>
<g id="a_Node000003"><a xlink:href="class_renderer.html#aedebec5eda045c72cdea13a438ed75eb" target="_top" xlink:title="Renders the desired meshes for the given camera.">
<polygon fill="white" stroke="#666666" points="88.75,-113.25 0,-113.25 0,-94 88.75,-94 88.75,-113.25"/>
<text xml:space="preserve" text-anchor="middle" x="44.38" y="-99.75" font-family="Helvetica,sans-Serif" font-size="10.00">Renderer::render</text>
</a>
</g>
</g>
<!-- Node1&#45;&gt;Node3 -->
<g id="edge7_Node000001_Node000003" class="edge">
<title>Node1&#45;&gt;Node3</title>
<g id="a_edge7_Node000001_Node000003"><a xlink:title=" ">
<path fill="none" stroke="#63b8ff" d="M477.42,-86.68C381.31,-90.45 178.37,-98.41 89.09,-101.91"/>
<polygon fill="#63b8ff" stroke="#63b8ff" points="477.5,-90.18 487.36,-86.29 477.23,-83.18 477.5,-90.18"/>
</a>
</g>
</g>
<!-- Node4 -->
<g id="Node000004" class="node">
<title>Node4</title>
<g id="a_Node000004"><a xlink:href="class_renderer.html#a2a27b8335ab77cd2939eafd54bad3587" target="_top" xlink:title=" ">
<polygon fill="white" stroke="#666666" points="432.75,-56.25 328.25,-56.25 328.25,-37 432.75,-37 432.75,-56.25"/>
<text xml:space="preserve" text-anchor="middle" x="380.5" y="-42.75" font-family="Helvetica,sans-Serif" font-size="10.00">Renderer::initVulkan</text>
</a>
</g>
</g>
<!-- Node1&#45;&gt;Node4 -->
<g id="edge3_Node000001_Node000004" class="edge">
<title>Node1&#45;&gt;Node4</title>
<g id="a_edge3_Node000001_Node000004"><a xlink:title=" ">
<path fill="none" stroke="#63b8ff" d="M479.45,-71.73C460.29,-66.82 438.75,-61.3 420.77,-56.69"/>
<polygon fill="#63b8ff" stroke="#63b8ff" points="478.39,-75.07 488.94,-74.17 480.13,-68.29 478.39,-75.07"/>
</a>
</g>
</g>
<!-- Node6 -->
<g id="Node000006" class="node">
<title>Node6</title>
<g id="a_Node000006"><a xlink:href="class_renderer.html#aa9280d4ade31cd5a0d7566a0df4f6485" target="_top" xlink:title=" ">
<polygon fill="white" stroke="#666666" points="453,-132.25 308,-132.25 308,-113 453,-113 453,-132.25"/>
<text xml:space="preserve" text-anchor="middle" x="380.5" y="-118.75" font-family="Helvetica,sans-Serif" font-size="10.00">Renderer::recreateSwapchain</text>
</a>
</g>
</g>
<!-- Node1&#45;&gt;Node6 -->
<g id="edge5_Node000001_Node000006" class="edge">
<title>Node1&#45;&gt;Node6</title>
<g id="a_edge5_Node000001_Node000006"><a xlink:title=" ">
<path fill="none" stroke="#63b8ff" d="M479.45,-97.52C460.29,-102.43 438.75,-107.95 420.77,-112.56"/>
<polygon fill="#63b8ff" stroke="#63b8ff" points="480.13,-100.96 488.94,-95.08 478.39,-94.18 480.13,-100.96"/>
</a>
</g>
</g>
<!-- Node7 -->
<g id="Node000007" class="node">
<title>Node7</title>
<g id="a_Node000007"><a xlink:href="class_window.html#a823f4f107d2bd8b07d44207e2af936be" target="_top" xlink:title=" ">
<polygon fill="white" stroke="#666666" points="426.75,-19.25 334.25,-19.25 334.25,0 426.75,0 426.75,-19.25"/>
<text xml:space="preserve" text-anchor="middle" x="380.5" y="-5.75" font-family="Helvetica,sans-Serif" font-size="10.00">Window::Window</text>
</a>
</g>
</g>
<!-- Node1&#45;&gt;Node7 -->
<g id="edge8_Node000001_Node000007" class="edge">
<title>Node1&#45;&gt;Node7</title>
<g id="a_edge8_Node000001_Node000007"><a xlink:title=" ">
<path fill="none" stroke="#63b8ff" d="M510.96,-67.34C496.21,-54.64 474.61,-37.87 453,-27.62 444.9,-23.79 435.89,-20.7 427.06,-18.24"/>
<polygon fill="#63b8ff" stroke="#63b8ff" points="508.26,-69.63 518.07,-73.63 512.9,-64.38 508.26,-69.63"/>
</a>
</g>
</g>
<!-- Node2&#45;&gt;Node3 -->
<g id="edge2_Node000002_Node000003" class="edge">
<title>Node2&#45;&gt;Node3</title>
<g id="a_edge2_Node000002_Node000003"><a xlink:title=" ">
<path fill="none" stroke="#63b8ff" d="M113.07,-112.09C104.73,-111.04 96.52,-110.02 88.86,-109.06"/>
<polygon fill="#63b8ff" stroke="#63b8ff" points="112.63,-115.56 122.99,-113.33 113.5,-108.61 112.63,-115.56"/>
</a>
</g>
</g>
<!-- Node5 -->
<g id="Node000005" class="node">
<title>Node5</title>
<g id="a_Node000005"><a xlink:href="class_renderer.html#ab754154ec14584667ea0319d69c438f9" target="_top" xlink:title=" ">
<polygon fill="white" stroke="#666666" points="249.12,-56.25 147.62,-56.25 147.62,-37 249.12,-37 249.12,-56.25"/>
<text xml:space="preserve" text-anchor="middle" x="198.38" y="-42.75" font-family="Helvetica,sans-Serif" font-size="10.00">Renderer::Renderer</text>
</a>
</g>
</g>
<!-- Node4&#45;&gt;Node5 -->
<g id="edge4_Node000004_Node000005" class="edge">
<title>Node4&#45;&gt;Node5</title>
<g id="a_edge4_Node000004_Node000005"><a xlink:title=" ">
<path fill="none" stroke="#63b8ff" d="M316.63,-46.62C294.64,-46.62 270.25,-46.62 249.45,-46.62"/>
<polygon fill="#63b8ff" stroke="#63b8ff" points="316.37,-50.13 326.37,-46.63 316.37,-43.13 316.37,-50.13"/>
</a>
</g>
</g>
<!-- Node6&#45;&gt;Node2 -->
<g id="edge6_Node000006_Node000002" class="edge">
<title>Node6&#45;&gt;Node2</title>
<g id="a_edge6_Node000006_Node000002"><a xlink:title=" ">
<path fill="none" stroke="#63b8ff" d="M296.05,-122.62C288.15,-122.62 280.19,-122.62 272.4,-122.62"/>
<polygon fill="#63b8ff" stroke="#63b8ff" points="296.02,-126.13 306.02,-122.63 296.02,-119.13 296.02,-126.13"/>
</a>
</g>
</g>
</g>
</svg>
