<?xml version="1.0" encoding="UTF-8" standalone="no"?>
<!DOCTYPE svg PUBLIC "-//W3C//DTD SVG 1.1//EN"
 "http://www.w3.org/Graphics/SVG/1.1/DTD/svg11.dtd">
<!-- Generated by graphviz version 14.1.2 (0)
 -->
<!-- Title: Mesh::vertBuffer Pages: 1 -->
<svg width="403pt" height="29pt"
 viewBox="0.00 0.00 403.00 29.00" xmlns="http://www.w3.org/2000/svg" xmlns:xlink="http://www.w3.org/1999/xlink">
<g id="graph0" class="graph" transform="scale(1 1) rotate(0) translate(4 24.75)">
<title>Mesh::vertBuffer</title>
<!-- Node1 -->
<g id="Node000001" class="node">
<title>Node1</title>
<g id="a_Node000001"><a xlink:title=" ">
<polygon fill="#999999" stroke="#666666" points="394.5,-20.75 297.5,-20.75 297.5,0 394.5,0 394.5,-20.75"/>
<text xml:space="preserve" text-anchor="middle" x="346" y="-7.25" font-family="Helvetica,sans-Serif" font-size="10.00">Mesh::vertBuffer</text>
</a>
</g>
</g>
<!-- Node2 -->
<g id="Node000002" class="node">
<title>Node2</title>
<g id="a_Node000002"><a xlink:href="classRenderer.html#af5bd16f725e90fd7c61956551df756bd" target="_top" xlink:title=" ">
<polygon fill="white" stroke="#666666" points="261.5,-20.75 133.75,-20.75 133.75,0 261.5,0 261.5,-20.75"/>
<text xml:space="preserve" text-anchor="middle" x="197.62" y="-7.25" font-family="Helvetica,sans-Serif" font-size="10.00">Renderer::recordFrame</text>
</a>
</g>
</g>
<!-- Node1&#45;&gt;Node2 -->
<g id="edge1_Node000001_Node000002" class="edge">
<title>Node1&#45;&gt;Node2</title>
<g id="a_edge1_Node000001_Node000002"><a xlink:title=" ">
<path fill="none" stroke="#63b8ff" d="M285.74,-10.38C277.87,-10.38 269.78,-10.38 261.84,-10.38"/>
<polygon fill="#63b8ff" stroke="#63b8ff" points="285.56,-13.88 295.56,-10.38 285.56,-6.88 285.56,-13.88"/>
</a>
</g>
</g>
<!-- Node3 -->
<g id="Node000003" class="node">
<title>Node3</title>
<g id="a_Node000003"><a xlink:href="classRenderer.html#a80e9db2724eb31ddd80dfcf5c8f94b97" target="_top" xlink:title="Renders the desired chunks for the given camera.">
<polygon fill="white" stroke="#666666" points="97.75,-20.75 0,-20.75 0,0 97.75,0 97.75,-20.75"/>
<text xml:space="preserve" text-anchor="middle" x="48.88" y="-7.25" font-family="Helvetica,sans-Serif" font-size="10.00">Renderer::render</text>
</a>
</g>
</g>
<!-- Node2&#45;&gt;Node3 -->
<g id="edge2_Node000002_Node000003" class="edge">
<title>Node2&#45;&gt;Node3</title>
<g id="a_edge2_Node000002_Node000003"><a xlink:title=" ">
<path fill="none" stroke="#63b8ff" d="M122.25,-10.38C113.96,-10.38 105.68,-10.38 97.84,-10.38"/>
<polygon fill="#63b8ff" stroke="#63b8ff" points="122.02,-13.88 132.02,-10.38 122.02,-6.88 122.02,-13.88"/>
</a>
</g>
</g>
</g>
</svg>
