<?xml version="1.0" encoding="UTF-8" standalone="no"?>
<!DOCTYPE svg PUBLIC "-//W3C//DTD SVG 1.1//EN"
 "http://www.w3.org/Graphics/SVG/1.1/DTD/svg11.dtd">
<!-- Generated by graphviz version 14.1.2 (0)
 -->
<!-- Title: Renderer::createVulkanInstance Pages: 1 -->
<svg width="475pt" height="29pt"
 viewBox="0.00 0.00 475.00 29.00" xmlns="http://www.w3.org/2000/svg" xmlns:xlink="http://www.w3.org/1999/xlink">
<g id="graph0" class="graph" transform="scale(1 1) rotate(0) translate(4 24.75)">
<title>Renderer::createVulkanInstance</title>
<!-- Node1 -->
<g id="Node000001" class="node">
<title>Node1</title>
<g id="a_Node000001"><a xlink:title=" ">
<polygon fill="#999999" stroke="#666666" points="467.25,-20.75 296.75,-20.75 296.75,0 467.25,0 467.25,-20.75"/>
<text xml:space="preserve" text-anchor="middle" x="382" y="-7.25" font-family="Helvetica,sans-Serif" font-size="10.00">Renderer::createVulkanInstance</text>
</a>
</g>
</g>
<!-- Node2 -->
<g id="Node000002" class="node">
<title>Node2</title>
<g id="a_Node000002"><a xlink:href="classRenderer.html#a2a27b8335ab77cd2939eafd54bad3587" target="_top" xlink:title=" ">
<polygon fill="white" stroke="#666666" points="260.75,-20.75 146.5,-20.75 146.5,0 260.75,0 260.75,-20.75"/>
<text xml:space="preserve" text-anchor="middle" x="203.62" y="-7.25" font-family="Helvetica,sans-Serif" font-size="10.00">Renderer::initVulkan</text>
</a>
</g>
</g>
<!-- Node1&#45;&gt;Node2 -->
<g id="edge1_Node000001_Node000002" class="edge">
<title>Node1&#45;&gt;Node2</title>
<g id="a_edge1_Node000001_Node000002"><a xlink:title=" ">
<path fill="none" stroke="#63b8ff" d="M284.96,-10.38C276.87,-10.38 268.87,-10.38 261.23,-10.38"/>
<polygon fill="#63b8ff" stroke="#63b8ff" points="284.92,-13.88 294.92,-10.38 284.92,-6.88 284.92,-13.88"/>
</a>
</g>
</g>
<!-- Node3 -->
<g id="Node000003" class="node">
<title>Node3</title>
<g id="a_Node000003"><a xlink:href="classRenderer.html#ab754154ec14584667ea0319d69c438f9" target="_top" xlink:title=" ">
<polygon fill="white" stroke="#666666" points="110.5,-20.75 0,-20.75 0,0 110.5,0 110.5,-20.75"/>
<text xml:space="preserve" text-anchor="middle" x="55.25" y="-7.25" font-family="Helvetica,sans-Serif" font-size="10.00">Renderer::Renderer</text>
</a>
</g>
</g>
<!-- Node2&#45;&gt;Node3 -->
<g id="edge2_Node000002_Node000003" class="edge">
<title>Node2&#45;&gt;Node3</title>
<g id="a_edge2_Node000002_Node000003"><a xlink:title=" ">
<path fill="none" stroke="#63b8ff" d="M134.76,-10.38C126.72,-10.38 118.59,-10.38 110.77,-10.38"/>
<polygon fill="#63b8ff" stroke="#63b8ff" points="134.52,-13.88 144.52,-10.38 134.52,-6.88 134.52,-13.88"/>
</a>
</g>
</g>
</g>
</svg>
