<?xml version="1.0" encoding="UTF-8" standalone="no"?>
<!DOCTYPE svg PUBLIC "-//W3C//DTD SVG 1.1//EN"
 "http://www.w3.org/Graphics/SVG/1.1/DTD/svg11.dtd">
<!-- Generated by graphviz version 15.1.1 (20260805.0921)
 -->
<!-- Title: Texture::operator= Pages: 1 -->
<svg width="380pt" height="64pt"
 viewBox="0.00 0.00 380.00 64.00" xmlns="http://www.w3.org/2000/svg" xmlns:xlink="http://www.w3.org/1999/xlink">
<g id="graph0" class="graph" transform="scale(1 1) rotate(0) translate(4 60.25)">
<title>Texture::operator=</title>
<!-- Node1 -->
<g id="Node000001" class="node">
<title>Node1</title>
<g id="a_Node000001"><a xlink:title=" ">
<polygon fill="#999999" stroke="#666666" points="95.5,-37.25 0,-37.25 0,-18 95.5,-18 95.5,-37.25"/>
<text xml:space="preserve" text-anchor="middle" x="47.75" y="-23.75" font-family="Helvetica,sans-Serif" font-size="10.00">Texture::operator=</text>
</a>
</g>
</g>
<!-- Node2 -->
<g id="Node000002" class="node">
<title>Node2</title>
<g id="a_Node000002"><a xlink:href="class_texture.html#a3fea678d7700524df767637de39508b5" target="_top" xlink:title=" ">
<polygon fill="white" stroke="#666666" points="245,-56.25 131.5,-56.25 131.5,-37 245,-37 245,-56.25"/>
<text xml:space="preserve" text-anchor="middle" x="188.25" y="-42.75" font-family="Helvetica,sans-Serif" font-size="10.00">Texture::descriptorInfo</text>
</a>
</g>
</g>
<!-- Node1&#45;&gt;Node2 -->
<g id="edge1_Node000001_Node000002" class="edge">
<title>Node1&#45;&gt;Node2</title>
<g id="a_edge1_Node000001_Node000002"><a xlink:title=" ">
<path fill="none" stroke="#63b8ff" d="M95.64,-34.06C103.52,-35.14 111.83,-36.28 120.1,-37.41"/>
<polygon fill="#63b8ff" stroke="#63b8ff" points="119.42,-40.85 129.8,-38.74 120.37,-33.92 119.42,-40.85"/>
</a>
</g>
</g>
<!-- Node3 -->
<g id="Node000003" class="node">
<title>Node3</title>
<g id="a_Node000003"><a xlink:href="class_texture.html#ae702dac79c7d0868c4af7ca6c6352b08" target="_top" xlink:title=" ">
<polygon fill="white" stroke="#666666" points="231.5,-19.25 145,-19.25 145,0 231.5,0 231.5,-19.25"/>
<text xml:space="preserve" text-anchor="middle" x="188.25" y="-5.75" font-family="Helvetica,sans-Serif" font-size="10.00">Texture::Texture</text>
</a>
</g>
</g>
<!-- Node1&#45;&gt;Node3 -->
<g id="edge2_Node000001_Node000003" class="edge">
<title>Node1&#45;&gt;Node3</title>
<g id="a_edge2_Node000001_Node000003"><a xlink:title=" ">
<path fill="none" stroke="#63b8ff" d="M95.64,-21.53C107.78,-19.95 120.94,-18.24 133.4,-16.62"/>
<polygon fill="#63b8ff" stroke="#63b8ff" points="133.63,-20.12 143.1,-15.36 132.73,-13.18 133.63,-20.12"/>
</a>
</g>
</g>
<!-- Node4 -->
<g id="Node000004" class="node">
<title>Node4</title>
<g id="a_Node000004"><a xlink:href="namespace_voxis_log.html#a2e83c310dec6f4b5903ca0c238255ca1" target="_top" xlink:title=" ">
<polygon fill="white" stroke="#666666" points="372,-19.25 281,-19.25 281,0 372,0 372,-19.25"/>
<text xml:space="preserve" text-anchor="middle" x="326.5" y="-5.75" font-family="Helvetica,sans-Serif" font-size="10.00">VoxisLog::critical</text>
</a>
</g>
</g>
<!-- Node3&#45;&gt;Node4 -->
<g id="edge3_Node000003_Node000004" class="edge">
<title>Node3&#45;&gt;Node4</title>
<g id="a_edge3_Node000003_Node000004"><a xlink:title=" ">
<path fill="none" stroke="#63b8ff" d="M231.99,-9.62C243.82,-9.62 256.84,-9.62 269.31,-9.62"/>
<polygon fill="#63b8ff" stroke="#63b8ff" points="269.05,-13.13 279.05,-9.63 269.05,-6.13 269.05,-13.13"/>
</a>
</g>
</g>
<!-- Node4&#45;&gt;Node4 -->
<g id="edge4_Node000004_Node000004" class="edge">
<title>Node4&#45;&gt;Node4</title>
<g id="a_edge4_Node000004_Node000004"><a xlink:title=" ">
<path fill="none" stroke="#63b8ff" d="M304.86,-19.54C294.98,-28.15 302.2,-37.25 326.5,-37.25 339.79,-37.25 347.97,-34.53 351.04,-30.65"/>
<polygon fill="#63b8ff" stroke="#63b8ff" points="354.43,-29.8 348.53,-21 347.66,-31.56 354.43,-29.8"/>
</a>
</g>
</g>
</g>
</svg>
