<?xml version="1.0" encoding="UTF-8" standalone="no"?>
<!DOCTYPE svg PUBLIC "-//W3C//DTD SVG 1.1//EN"
 "http://www.w3.org/Graphics/SVG/1.1/DTD/svg11.dtd">
<!-- Generated by graphviz version 15.1.1 (20260805.0921)
 -->
<!-- Title: Renderer::createShaderModule Pages: 1 -->
<svg width="286pt" height="100pt"
 viewBox="0.00 0.00 286.00 100.00" xmlns="http://www.w3.org/2000/svg" xmlns:xlink="http://www.w3.org/1999/xlink">

<svg id="main" version="1.1" xmlns="http://www.w3.org/2000/svg" xmlns:xlink="http://www.w3.org/1999/xlink" xml:space="preserve">

<style type="text/css"><![CDATA[
.node, .edge {opacity: 0.7;}
.node.selected, .edge.selected {opacity: 1;}
.edge:hover path { stroke: red; }
.edge:hover polygon { stroke: red; fill: red; }
]]></style>
<script type="application/ecmascript" xlink:href="svg.min.js"/>
<svg id="graph" class="graph">
<g id="graph0" class="graph" transform="scale(1 1) rotate(0) translate(4 96.25)">
<title>Renderer::createShaderModule</title>
<!-- Node1 -->
<g id="Node000001" class="node">
<title>Node1</title>
<g id="a_Node000001"><a xlink:title=" ">
<polygon fill="#999999" stroke="#666666" points="151,-46.25 0,-46.25 0,-27 151,-27 151,-46.25"/>
<text xml:space="preserve" text-anchor="middle" x="75.5" y="-32.75" font-family="Helvetica,sans-Serif" font-size="10.00">Renderer::createShaderModule</text>
</a>
</g>
</g>
<!-- Node2 -->
<g id="Node000002" class="node">
<title>Node2</title>
<g id="a_Node000002"><a xlink:href="namespace_voxis_log.html#a2e83c310dec6f4b5903ca0c238255ca1" target="_top" xlink:title=" ">
<polygon fill="white" stroke="#666666" points="278,-74.25 187,-74.25 187,-55 278,-55 278,-74.25"/>
<text xml:space="preserve" text-anchor="middle" x="232.5" y="-60.75" font-family="Helvetica,sans-Serif" font-size="10.00">VoxisLog::critical</text>
</a>
</g>
</g>
<!-- Node1&#45;&gt;Node2 -->
<g id="edge1_Node000001_Node000002" class="edge">
<title>Node1&#45;&gt;Node2</title>
<g id="a_edge1_Node000001_Node000002"><a xlink:title=" ">
<path fill="none" stroke="#63b8ff" d="M132.46,-46.73C146.55,-49.28 161.68,-52.01 175.77,-54.56"/>
<polygon fill="#63b8ff" stroke="#63b8ff" points="174.85,-57.95 185.31,-56.28 176.09,-51.06 174.85,-57.95"/>
</a>
</g>
</g>
<!-- Node3 -->
<g id="Node000003" class="node">
<title>Node3</title>
<g id="a_Node000003"><a xlink:href="namespace_voxis.html#a471857055f104481f34bcd72b3a320ae" target="_top" xlink:title=" ">
<polygon fill="white" stroke="#666666" points="273.12,-19.25 191.88,-19.25 191.88,0 273.12,0 273.12,-19.25"/>
<text xml:space="preserve" text-anchor="middle" x="232.5" y="-5.75" font-family="Helvetica,sans-Serif" font-size="10.00">Voxis::readFile</text>
</a>
</g>
</g>
<!-- Node1&#45;&gt;Node3 -->
<g id="edge3_Node000001_Node000003" class="edge">
<title>Node1&#45;&gt;Node3</title>
<g id="a_edge3_Node000001_Node000003"><a xlink:title=" ">
<path fill="none" stroke="#63b8ff" d="M134.22,-26.57C149.44,-23.92 165.76,-21.08 180.6,-18.49"/>
<polygon fill="#63b8ff" stroke="#63b8ff" points="180.87,-22 190.12,-16.83 179.67,-15.1 180.87,-22"/>
</a>
</g>
</g>
<!-- Node2&#45;&gt;Node2 -->
<g id="edge2_Node000002_Node000002" class="edge">
<title>Node2&#45;&gt;Node2</title>
<g id="a_edge2_Node000002_Node000002"><a xlink:title=" ">
<path fill="none" stroke="#63b8ff" d="M207.92,-74.54C196.71,-83.15 204.9,-92.25 232.5,-92.25 248.02,-92.25 257.41,-89.37 260.65,-85.32"/>
<polygon fill="#63b8ff" stroke="#63b8ff" points="264.02,-84.37 257.56,-75.97 257.38,-86.57 264.02,-84.37"/>
</a>
</g>
</g>
<!-- Node3&#45;&gt;Node3 -->
<g id="edge4_Node000003_Node000003" class="edge">
<title>Node3&#45;&gt;Node3</title>
<g id="a_edge4_Node000003_Node000003"><a xlink:title=" ">
<path fill="none" stroke="#63b8ff" d="M207.92,-19.54C196.71,-28.15 204.9,-37.25 232.5,-37.25 248.02,-37.25 257.41,-34.37 260.65,-30.32"/>
<polygon fill="#63b8ff" stroke="#63b8ff" points="264.02,-29.37 257.56,-20.97 257.38,-31.57 264.02,-29.37"/>
</a>
</g>
</g>
</g>
</svg>
</svg>

<style type='text/css'>
<![CDATA[
[data-mouse-over-selected='false'] { opacity: 0.7; }
[data-mouse-over-selected='true']  { opacity: 1.0; }
]]>
</style>
</svg>
