<?xml version="1.0" encoding="UTF-8" standalone="no"?>
<!DOCTYPE svg PUBLIC "-//W3C//DTD SVG 1.1//EN"
 "http://www.w3.org/Graphics/SVG/1.1/DTD/svg11.dtd">
<!-- Generated by graphviz version 14.1.2 (0)
 -->
<!-- Title: src/util/thread_pool.h Pages: 1 -->
<svg width="590pt" height="86pt"
 viewBox="0.00 0.00 590.00 86.00" xmlns="http://www.w3.org/2000/svg" xmlns:xlink="http://www.w3.org/1999/xlink">
<g id="graph0" class="graph" transform="scale(1 1) rotate(0) translate(4 81.5)">
<title>src/util/thread_pool.h</title>
<!-- Node1 -->
<g id="Node000001" class="node">
<title>Node1</title>
<g id="a_Node000001"><a xlink:title=" ">
<polygon fill="#999999" stroke="#666666" points="330,-77.5 211.25,-77.5 211.25,-56.75 330,-56.75 330,-77.5"/>
<text xml:space="preserve" text-anchor="middle" x="270.62" y="-64" font-family="Helvetica,sans-Serif" font-size="10.00">src/util/thread_pool.h</text>
</a>
</g>
</g>
<!-- Node2 -->
<g id="Node000002" class="node">
<title>Node2</title>
<g id="a_Node000002"><a xlink:title=" ">
<polygon fill="#e0e0e0" stroke="#999999" points="51.25,-20.75 0,-20.75 0,0 51.25,0 51.25,-20.75"/>
<text xml:space="preserve" text-anchor="middle" x="25.62" y="-7.25" font-family="Helvetica,sans-Serif" font-size="10.00">cassert</text>
</a>
</g>
</g>
<!-- Node1&#45;&gt;Node2 -->
<g id="edge1_Node000001_Node000002" class="edge">
<title>Node1&#45;&gt;Node2</title>
<g id="a_edge1_Node000001_Node000002"><a xlink:title=" ">
<path fill="none" stroke="#63b8ff" d="M221.67,-56.25C181.43,-47.98 122.67,-35.54 62.44,-21.1"/>
<polygon fill="#63b8ff" stroke="#63b8ff" points="63.6,-17.78 53.05,-18.83 61.95,-24.58 63.6,-17.78"/>
</a>
</g>
</g>
<!-- Node3 -->
<g id="Node000003" class="node">
<title>Node3</title>
<g id="a_Node000003"><a xlink:title=" ">
<polygon fill="#e0e0e0" stroke="#999999" points="134,-20.75 69.25,-20.75 69.25,0 134,0 134,-20.75"/>
<text xml:space="preserve" text-anchor="middle" x="101.62" y="-7.25" font-family="Helvetica,sans-Serif" font-size="10.00">functional</text>
</a>
</g>
</g>
<!-- Node1&#45;&gt;Node3 -->
<g id="edge2_Node000001_Node000003" class="edge">
<title>Node1&#45;&gt;Node3</title>
<g id="a_edge2_Node000001_Node000003"><a xlink:title=" ">
<path fill="none" stroke="#63b8ff" d="M240.41,-56.34C213.1,-47.49 172.67,-34.39 142.48,-24.61"/>
<polygon fill="#63b8ff" stroke="#63b8ff" points="143.89,-21.39 133.3,-21.64 141.74,-28.05 143.89,-21.39"/>
</a>
</g>
</g>
<!-- Node4 -->
<g id="Node000004" class="node">
<title>Node4</title>
<g id="a_Node000004"><a xlink:title=" ">
<polygon fill="#e0e0e0" stroke="#999999" points="197.25,-20.75 152,-20.75 152,0 197.25,0 197.25,-20.75"/>
<text xml:space="preserve" text-anchor="middle" x="174.62" y="-7.25" font-family="Helvetica,sans-Serif" font-size="10.00">future</text>
</a>
</g>
</g>
<!-- Node1&#45;&gt;Node4 -->
<g id="edge3_Node000001_Node000004" class="edge">
<title>Node1&#45;&gt;Node4</title>
<g id="a_edge3_Node000001_Node000004"><a xlink:title=" ">
<path fill="none" stroke="#63b8ff" d="M253.46,-56.34C238.99,-48.08 218.04,-36.13 201.37,-26.63"/>
<polygon fill="#63b8ff" stroke="#63b8ff" points="203.37,-23.74 192.95,-21.83 199.91,-29.82 203.37,-23.74"/>
</a>
</g>
</g>
<!-- Node5 -->
<g id="Node000005" class="node">
<title>Node5</title>
<g id="a_Node000005"><a xlink:title=" ">
<polygon fill="#e0e0e0" stroke="#999999" points="261.62,-20.75 215.62,-20.75 215.62,0 261.62,0 261.62,-20.75"/>
<text xml:space="preserve" text-anchor="middle" x="238.62" y="-7.25" font-family="Helvetica,sans-Serif" font-size="10.00">queue</text>
</a>
</g>
</g>
<!-- Node1&#45;&gt;Node5 -->
<g id="edge4_Node000001_Node000005" class="edge">
<title>Node1&#45;&gt;Node5</title>
<g id="a_edge4_Node000001_Node000005"><a xlink:title=" ">
<path fill="none" stroke="#63b8ff" d="M264.9,-56.34C260.76,-49.25 255.03,-39.44 249.97,-30.79"/>
<polygon fill="#63b8ff" stroke="#63b8ff" points="253.13,-29.25 245.06,-22.39 247.08,-32.78 253.13,-29.25"/>
</a>
</g>
</g>
<!-- Node6 -->
<g id="Node000006" class="node">
<title>Node6</title>
<g id="a_Node000006"><a xlink:title=" ">
<polygon fill="#e0e0e0" stroke="#999999" points="327.38,-20.75 279.88,-20.75 279.88,0 327.38,0 327.38,-20.75"/>
<text xml:space="preserve" text-anchor="middle" x="303.62" y="-7.25" font-family="Helvetica,sans-Serif" font-size="10.00">mutex</text>
</a>
</g>
</g>
<!-- Node1&#45;&gt;Node6 -->
<g id="edge5_Node000001_Node000006" class="edge">
<title>Node1&#45;&gt;Node6</title>
<g id="a_edge5_Node000001_Node000006"><a xlink:title=" ">
<path fill="none" stroke="#63b8ff" d="M276.52,-56.34C280.8,-49.25 286.71,-39.44 291.92,-30.79"/>
<polygon fill="#63b8ff" stroke="#63b8ff" points="294.83,-32.75 297,-22.37 288.84,-29.13 294.83,-32.75"/>
</a>
</g>
</g>
<!-- Node7 -->
<g id="Node000007" class="node">
<title>Node7</title>
<g id="a_Node000007"><a xlink:title=" ">
<polygon fill="#e0e0e0" stroke="#999999" points="451.62,-20.75 345.62,-20.75 345.62,0 451.62,0 451.62,-20.75"/>
<text xml:space="preserve" text-anchor="middle" x="398.62" y="-7.25" font-family="Helvetica,sans-Serif" font-size="10.00">condition_variable</text>
</a>
</g>
</g>
<!-- Node1&#45;&gt;Node7 -->
<g id="edge6_Node000001_Node000007" class="edge">
<title>Node1&#45;&gt;Node7</title>
<g id="a_edge6_Node000001_Node000007"><a xlink:title=" ">
<path fill="none" stroke="#63b8ff" d="M293.51,-56.34C313.53,-47.77 342.86,-35.23 365.46,-25.56"/>
<polygon fill="#63b8ff" stroke="#63b8ff" points="366.73,-28.82 374.55,-21.67 363.98,-22.39 366.73,-28.82"/>
</a>
</g>
</g>
<!-- Node8 -->
<g id="Node000008" class="node">
<title>Node8</title>
<g id="a_Node000008"><a xlink:title=" ">
<polygon fill="#e0e0e0" stroke="#999999" points="517.38,-20.75 469.88,-20.75 469.88,0 517.38,0 517.38,-20.75"/>
<text xml:space="preserve" text-anchor="middle" x="493.62" y="-7.25" font-family="Helvetica,sans-Serif" font-size="10.00">thread</text>
</a>
</g>
</g>
<!-- Node1&#45;&gt;Node8 -->
<g id="edge7_Node000001_Node000008" class="edge">
<title>Node1&#45;&gt;Node8</title>
<g id="a_edge7_Node000001_Node000008"><a xlink:title=" ">
<path fill="none" stroke="#63b8ff" d="M314.15,-56.28C350.33,-47.98 403.43,-35.51 458.48,-21.23"/>
<polygon fill="#63b8ff" stroke="#63b8ff" points="459.25,-24.65 468.04,-18.74 457.48,-17.87 459.25,-24.65"/>
</a>
</g>
</g>
<!-- Node9 -->
<g id="Node000009" class="node">
<title>Node9</title>
<g id="a_Node000009"><a xlink:title=" ">
<polygon fill="#e0e0e0" stroke="#999999" points="582,-20.75 535.25,-20.75 535.25,0 582,0 582,-20.75"/>
<text xml:space="preserve" text-anchor="middle" x="558.62" y="-7.25" font-family="Helvetica,sans-Serif" font-size="10.00">vector</text>
</a>
</g>
</g>
<!-- Node1&#45;&gt;Node9 -->
<g id="edge8_Node000001_Node000009" class="edge">
<title>Node1&#45;&gt;Node9</title>
<g id="a_edge8_Node000001_Node000009"><a xlink:title=" ">
<path fill="none" stroke="#63b8ff" d="M330.49,-57.42C380.07,-49.77 452.54,-37.61 523.95,-21.19"/>
<polygon fill="#63b8ff" stroke="#63b8ff" points="524.52,-24.65 533.46,-18.97 522.93,-17.84 524.52,-24.65"/>
</a>
</g>
</g>
</g>
</svg>
